<?xml version="1.0" encoding="UTF-8"?>
<svg width="24px" height="24px" viewBox="0 0 24 24" version="1.1" xmlns="http://www.w3.org/2000/svg" xmlns:xlink="http://www.w3.org/1999/xlink">
    <title>Icon/Search</title>
    <defs>
        <path d="M5.59998,10.39992 C5.59998,7.75275309 7.75275309,5.59998 10.39992,5.59998 C13.0470869,5.59998 15.19986,7.75275309 15.19986,10.39992 C15.19986,13.0470869 13.0470869,15.19986 10.39992,15.19986 C7.75275309,15.19986 5.59998,13.0470869 5.59998,10.39992 M19.7654029,18.6342171 L15.4494569,14.317471 C16.2926463,13.2342846 16.79984,11.8767015 16.79984,10.39992 C16.79984,6.87116411 13.9286759,4 10.39992,4 C6.87116411,4 4,6.87116411 4,10.39992 C4,13.9286759 6.87116411,16.79984 10.39992,16.79984 C11.8767015,16.79984 13.2334846,16.2918464 14.317471,15.4494569 L18.6342171,19.7654029 C18.7902151,19.921401 18.9950126,19.9998 19.19981,19.9998 C19.4046074,19.9998 19.6094049,19.921401 19.7654029,19.7654029 C20.078199,19.4526068 20.078199,18.9470132 19.7654029,18.6342171" id="path-1"></path>
    </defs>
    <g id="Icon/Search" stroke="none" stroke-width="1" fill="none" fill-rule="evenodd">
        <mask id="mask-2" fill="white">
            <use xlink:href="#path-1"></use>
        </mask>
        <use id="Icon" fill="#fff" fill-rule="nonzero" xlink:href="#path-1"></use>
    </g>
</svg>